<svg width="121" height="41" viewBox="0 0 121 41" fill="none" xmlns="http://www.w3.org/2000/svg">
<path d="M24.8483 38.8423L20.644 30.8852C20.5718 30.7178 20.4521 30.5752 20.2997 30.475C20.1473 30.3748 19.9689 30.3213 19.7865 30.3213C19.6041 30.3213 19.4257 30.3748 19.2733 30.475C19.1209 30.5752 19.0012 30.7178 18.9289 30.8852L14.7246 38.8423" stroke="white" stroke-width="2.38879" stroke-linecap="round" stroke-linejoin="round"/>
<path d="M10.2188 36.9767L12.8728 28.3771C12.9392 28.2075 12.9548 28.0222 12.9175 27.8439C12.8803 27.6657 12.7918 27.5022 12.663 27.3734C12.5342 27.2446 12.3707 27.1562 12.1924 27.1189C12.0141 27.0817 11.8288 27.0972 11.6592 27.1637L3.05957 29.8176" stroke="white" stroke-width="2.38879" stroke-linecap="round" stroke-linejoin="round"/>
<path d="M1.19434 25.3123L9.1514 21.108C9.31887 21.0357 9.46151 20.9159 9.56173 20.7635C9.66194 20.6111 9.71535 20.4327 9.71535 20.2503C9.71535 20.0679 9.66194 19.8896 9.56173 19.7372C9.46151 19.5848 9.31887 19.465 9.1514 19.3928L1.19434 15.1885" stroke="white" stroke-width="2.38879" stroke-linecap="round" stroke-linejoin="round"/>
<path d="M3.05273 10.6832L11.6524 13.3371C11.822 13.4036 12.0073 13.4191 12.1856 13.3819C12.3638 13.3446 12.5274 13.2562 12.6562 13.1274C12.785 12.9986 12.8734 12.835 12.9107 12.6567C12.9479 12.4784 12.9324 12.2932 12.8659 12.1236L10.212 3.52393" stroke="white" stroke-width="2.38879" stroke-linecap="round" stroke-linejoin="round"/>
<path d="M14.7246 1.6582L18.9289 9.61516C19.0012 9.78263 19.1209 9.92529 19.2733 10.0255C19.4257 10.1257 19.6041 10.1791 19.7865 10.1791C19.9689 10.1791 20.1473 10.1257 20.2997 10.0255C20.4521 9.92529 20.5718 9.78263 20.644 9.61516L24.8483 1.6582" stroke="white" stroke-width="2.38879" stroke-linecap="round" stroke-linejoin="round"/>
<path d="M29.3557 3.52393L26.6993 12.1236C26.6329 12.2932 26.6173 12.4784 26.6546 12.6567C26.6918 12.835 26.7803 12.9986 26.9091 13.1274C27.0378 13.2562 27.2014 13.3446 27.3797 13.3819C27.558 13.4191 27.7433 13.4036 27.9128 13.3371L36.5125 10.6832" stroke="white" stroke-width="2.38879" stroke-linecap="round" stroke-linejoin="round"/>
<path d="M38.3808 15.1885L30.4213 19.3928C30.2539 19.465 30.1112 19.5848 30.011 19.7372C29.9108 19.8896 29.8574 20.0679 29.8574 20.2503C29.8574 20.4327 29.9108 20.6111 30.011 20.7635C30.1112 20.9159 30.2539 21.0357 30.4213 21.108L38.3808 25.3123" stroke="white" stroke-width="2.38879" stroke-linecap="round" stroke-linejoin="round"/>
<path d="M36.5126 29.8175L27.9129 27.1636C27.7435 27.0978 27.5585 27.0827 27.3807 27.1203C27.2028 27.1578 27.0397 27.2464 26.9113 27.375C26.7829 27.5037 26.6947 27.6669 26.6575 27.8449C26.6203 28.0228 26.6357 28.2076 26.7018 28.377L29.3582 36.9766" stroke="white" stroke-width="2.38879" stroke-linecap="round" stroke-linejoin="round"/>
<path d="M72.0147 28.8743L63.5369 12.8265C62.7366 11.3144 60.8758 11.3144 60.0755 12.8265L51.5977 28.8743" stroke="white" stroke-width="2.38879" stroke-linecap="round" stroke-linejoin="round"/>
<path d="M75.0771 11.6914L83.4736 22.89C84.2876 23.9589 84.732 25.2634 84.7397 26.6069V28.8739" stroke="white" stroke-width="2.38879" stroke-linecap="round" stroke-linejoin="round"/>
<path d="M94.3996 11.6914L86.003 22.89C85.1897 23.9591 84.7462 25.2636 84.7393 26.6069V28.8739" stroke="white" stroke-width="2.38879" stroke-linecap="round" stroke-linejoin="round"/>
<path d="M109.211 28.8741C101.161 28.8741 99.959 23.4922 99.959 20.2745C99.959 17.0568 101.153 11.6748 109.211 11.6748C117.268 11.6748 118.463 17.0568 118.463 20.2745C118.463 23.4922 117.261 28.8741 109.211 28.8741Z" stroke="white" stroke-width="2.38879" stroke-linecap="round" stroke-linejoin="round"/>
<path d="M51.5977 28.8739L52.2474 27.6436C53.0238 26.1721 54.3974 25.2788 55.8545 25.2788H67.7029C69.1195 25.2788 70.4429 26.1124 71.2335 27.5027L72.0147 28.8739" stroke="white" stroke-width="2.38879" stroke-linecap="round" stroke-linejoin="round"/>
</svg>
