<svg width="165" height="44" viewBox="0 0 165 44" fill="none" xmlns="http://www.w3.org/2000/svg">
<path d="M52.7344 36.064L57.4051 30.5108C59.1885 32.8106 62.8401 34.4373 66.3502 34.4373C67.8222 34.4373 68.4167 33.7922 68.4167 33.3154C68.4167 31.1559 55.9897 31.24 55.9897 23.7235C55.9897 19.264 59.7263 14.4961 67.1145 14.4961C71.3606 14.4961 75.6067 15.9545 78.4375 18.7872L73.7384 24.1722C71.5871 22.0407 68.2751 21.059 65.8407 21.059C64.8216 21.059 64.2555 21.5078 64.2555 22.0968C64.2555 24.1442 76.7107 24.2564 76.7107 31.6887C76.7107 37.0737 72.4363 41.0563 65.7275 41.0563C60.2075 41.0844 55.3103 39.1211 52.7344 36.064Z" fill="black"/>
<path d="M77.3047 40.6349L83.0228 14.916H97.4595C102.725 14.916 104.961 18.2255 104.961 21.3107C104.961 24.5921 102.187 27.5931 99.1297 27.8736C101.649 28.5748 102.838 30.7905 102.838 32.9501C102.838 36.3437 100.46 40.6349 93.6097 40.6349H77.3047ZM94.9968 32.333C94.9968 31.4916 94.4023 30.8746 93.5248 30.8746H87.3255L86.5895 34.1561H92.7888C94.1193 34.1561 94.9968 33.4269 94.9968 32.333ZM96.582 22.6569C96.582 21.9557 96.1291 21.3948 95.1949 21.3948H89.5052L88.7692 24.3958H94.6854C96.1574 24.3958 96.582 23.4703 96.582 22.6569Z" fill="black"/>
<path d="M111.698 38.6716L111.273 40.6349H104.281L109.999 14.916H116.991L114.981 23.9751C116.623 22.2082 118.124 21.535 120.077 21.535C124.266 21.535 127.069 24.2836 127.069 29.2759C127.069 34.4365 123.842 41.0836 117.133 41.0836C115.01 41.0836 112.887 40.3264 111.698 38.6716ZM119.822 30.7624C119.822 28.9113 118.378 27.6773 116.708 27.6773C115.604 27.6773 114.67 28.126 113.877 28.9394L112.773 33.6793C113.509 34.4926 114.642 34.9414 115.887 34.9414C118.124 34.9694 119.822 33.1464 119.822 30.7624Z" fill="black"/>
<path d="M128.562 32.7328C128.562 26.7868 133.148 21.6543 139.716 21.6543C144.386 21.6543 148.519 24.459 148.519 30.1244C148.519 31.3865 148.293 32.873 148.095 33.5461H135.498V33.5742C135.498 33.8546 136.63 35.902 139.348 35.902C140.82 35.902 142.575 35.5655 143.424 34.9765L145.575 39.492C143.679 40.698 141.103 41.175 138.838 41.175C132.752 41.2029 128.562 38.2019 128.562 32.7328ZM142.32 29.1708V29.0586C142.32 28.5257 141.669 26.9271 139.433 26.9271C137.564 26.9271 136.347 28.3575 136.121 29.1708H142.32Z" fill="black"/>
<path d="M151.158 36.3719C151.158 36.0915 151.186 35.4464 151.327 34.9135L152.856 28.014H149.742L151.101 22.012H154.215L155.347 16.9355H162.311L161.178 22.012H165L163.641 28.014H159.82L158.801 32.5576C158.716 32.8941 158.687 33.2868 158.687 33.4551C158.687 34.3526 159.225 34.9696 160.442 34.9696C160.782 34.9696 161.292 34.8574 161.405 34.7733V40.3265C160.669 40.8314 159.338 41.0838 158.065 41.0838C154.017 41.0838 151.158 39.6254 151.158 36.3719Z" fill="black"/>
<path d="M37.191 13.6822L38.3799 9.7837C39.3707 10.0642 40.6445 10.2605 42.7676 10.2605C42.9657 10.2605 43.1356 10.0922 43.1356 9.89589V7.42777C43.1356 7.23145 42.994 7.09121 42.7959 7.06317C41.522 7.00707 40.4747 6.75465 39.4556 6.39005L40.786 2.0989C41.0974 1.06117 40.3331 0.0234375 39.2574 0.0234375H17.9137C17.206 0.0234375 16.5832 0.472185 16.3851 1.14531L14.6583 6.81075C14.5451 7.14731 14.1771 7.34363 13.8374 7.25949L2.11818 3.72561C1.07081 3.41709 0.0234375 4.17435 0.0234375 5.24013V26.3874C0.0234375 27.0885 0.476355 27.7056 1.15573 27.9299L6.93043 29.6688C7.27012 29.781 7.46827 30.1456 7.38335 30.4822L3.87324 41.9533C3.56186 42.991 4.32616 44.0007 5.43014 44.0007H26.7173C27.425 44.0007 28.0477 43.552 28.2459 42.8788L29.9726 37.2695C30.0859 36.9329 30.4539 36.7366 30.7935 36.8207L42.3429 40.2985C43.3903 40.6071 44.4094 39.8498 44.4094 38.784V17.6929C44.4094 16.9917 43.9565 16.3747 43.2771 16.1784L37.6722 14.4956C37.2759 14.3834 37.0778 14.0188 37.191 13.6822ZM28.0194 4.39873C34.2753 4.09021 36.7947 5.5206 39.399 6.39005L38.3516 9.75565C36.0587 9.13862 35.068 8.15699 27.9911 8.63378C27.6797 8.66183 27.425 8.40941 27.4533 8.12894L27.5382 4.90357C27.5382 4.6231 27.7647 4.42677 28.0194 4.39873Z" fill="#8DC63F"/>
</svg>
