<svg xmlns="http://www.w3.org/2000/svg" viewBox="0 0 539.29 99.3"><defs><style>.cls-1{fill:#fff;}</style></defs><title>Asset 1</title><g id="Layer_2" data-name="Layer 2"><g id="图层_1" data-name="图层 1"><path class="cls-1" d="M2.58,97.79c11.44.54,30.1,1.07,40.89,1.07,47.08,0,52.69-.11,52.69-25.67,0-20.19-5.93-21.81-30.88-22.56l-28.92-.87c-13.27-.44-13.5-1.83-13.5-7.78,0-6.14,1.63-6.14,33.47-6.14,6,0,25.25.32,35.4.53l1.63-1.62V21.58l-1.52-1.71c-10-.56-26.45-1.1-38.21-1.1C7.43,18.77,0,19.64,0,43.49,0,63.9,4.52,66.6,34.09,67.58l26.54.85c12.42.43,12.65,1.93,12.65,6.58,0,6.38-.55,6.7-29.91,6.7-13.71,0-27.85-.54-40.68-1L1.07,82.25V96.06l1.51,1.73m498.15-28.6H466.2l15.87-31.43h2.8ZM399.88,58.28v1.09c0,20-1.64,20.61-27.53,20.61H351V37.67h21.37c25.89,0,27.53.63,27.53,20.61m-112.08,0v1.09c0,21.8-.85,22.12-26.33,22.12s-26.35-.32-26.35-22.12V58.28c0-21.8.86-22.12,26.35-22.12s26.33.32,26.33,22.12M539.07,95.74,501.83,21.16,500,20H467l-1.84,1.2L427.88,95.74c-.54,1.19-.1,1.93,1.17,1.93h21.5l1.82-1.18,5.62-11h50.95l5.61,11,1.84,1.18h21.48c1.3,0,1.73-.74,1.2-1.93M372.23,20H329.17l-1.63,1.62V96.06l1.63,1.61h43.06c46.1,0,52.15-2.26,52.15-38.53v-.65c0-36.27-6.05-38.53-52.15-38.53M205.5,95.74l-43-42L202.9,21.9c1.19-.86.75-1.94-.76-1.94H175.8l-1.94.76L132.63,53.65V21.58L131,20H110.93l-1.62,1.62V96.06l1.62,1.61H131l1.62-1.61V77.28l12.2-9.61L174.4,96.82l2,.85h28.29c1.4,0,1.84-1,.77-1.93m4.58-37.46v1.09c0,37.65,6.17,39.93,51.39,39.93s51.38-2.28,51.38-40v-1c0-37.67-6.16-39.93-51.38-39.93s-51.39,2.26-51.39,39.93M28.15,2,38,13.16l1.93.87H60.54l2-.87L72.31,2C73.17,1,72.84,0,71.44,0H57.53l-2,1L51.36,7H49.08L44.89,1,42.83,0H29c-1.41,0-1.72,1-.87,2"/></g></g></svg>