<svg width="130" height="122" viewBox="0 0 130 122" fill="none" xmlns="http://www.w3.org/2000/svg">
<path fill-rule="evenodd" clip-rule="evenodd" d="M79.2969 11.8315C79.4491 11.7754 79.4491 11.7754 79.6575 11.8716C79.4491 11.7754 79.4491 11.7754 79.2969 11.8315Z" fill="#D91A32"/>
<path fill-rule="evenodd" clip-rule="evenodd" d="M111.509 38.7018C111.453 38.5496 111.397 38.3973 111.453 38.5496C111.172 37.7882 111.1 37.123 110.723 36.57C110.611 36.2655 110.274 35.3519 110.122 35.408C110.234 35.7125 110.234 35.7125 110.138 35.9209C109.93 35.8248 109.705 35.2157 109.97 35.4641C110.138 35.9209 110.01 35.1035 110.01 35.1035C109.465 34.0937 109.2 33.8452 108.864 32.9316C108.639 32.3225 108.487 32.3786 108.166 31.9779C108.054 31.6734 107.998 31.5211 108.054 31.6734C107.677 31.1204 107.453 30.5113 107.245 30.4152C106.699 29.4054 105.738 28.2033 105.209 27.7064C105.265 27.8587 105.169 28.0671 105.112 27.9148C105.112 27.9148 105 27.6103 104.944 27.458L105.153 27.5542C104.776 27.0012 104.832 27.1535 104.511 26.7528C104.399 26.4482 103.229 25.15 103.02 25.0538C103.02 25.0538 102.868 25.1099 102.812 24.9577C102.548 24.7092 102.491 24.557 102.339 24.6131C102.339 24.6131 102.491 24.557 102.644 24.5009C102.059 23.8517 101.906 23.9078 101.53 23.3549C101.209 22.9542 100.945 22.7057 100.888 22.5535C99.8304 21.5598 98.9247 20.5099 98.0351 19.973L97.7706 19.7246C97.45 19.3239 96.3519 18.6908 95.6145 18.0978C95.4062 18.0017 94.7249 17.5609 94.6688 17.4086C93.7791 16.8717 92.8895 16.3348 91.9998 15.7979C91.8476 15.854 91.1102 15.261 91.2224 15.5656C91.014 15.4694 91.014 15.4694 90.8056 15.3733L90.7495 15.221C89.9721 14.9886 89.9721 14.9886 89.3469 14.7002C89.1386 14.604 88.8741 14.3556 88.7218 14.4117C88.9302 14.5078 88.9302 14.5078 88.9302 14.5078L88.5134 14.3155C88.4573 14.1633 88.0966 14.1232 87.6799 13.9309C87.0547 13.6424 86.9986 13.4902 86.2773 13.4101L85.7083 13.2739C85.4999 13.1777 84.0412 12.5046 83.6405 12.8252L83.4321 12.729C83.6805 12.4646 81.5166 12.2243 82.5024 12.5528C81.9334 12.4166 80.3785 11.9519 79.6572 11.8718C79.8656 11.9679 79.9217 12.1202 79.5611 12.0802C79.4488 11.7756 79.0081 12.4569 78.7436 12.2085C79.2565 12.1924 79.0481 12.0962 78.9359 11.7917C77.8539 11.6716 77.7578 11.8799 76.6758 11.7598L75.9545 11.6797C75.7461 11.5836 75.4416 11.6958 74.9286 11.7119C74.7764 11.768 74.1112 11.8402 74.1112 11.8402C73.7505 11.8001 73.2376 11.8162 72.5724 11.8884C72.2117 11.8483 72.3079 11.6399 71.9072 11.9605C71.5465 11.9205 71.3943 11.9766 71.6988 11.8644C70.8252 11.8404 71.2981 12.185 70.7852 12.2011C70.5768 12.1049 70.0639 12.121 69.551 12.137C69.3426 12.0409 68.2206 12.2814 68.0683 12.3375C67.7076 12.2975 67.6115 12.5059 67.4592 12.562L67.4031 12.4097C67.4031 12.4097 67.1947 12.3136 66.8902 12.4258C66.8902 12.4258 66.8341 12.2735 66.6818 12.3296C66.7779 12.1212 65.5037 12.4179 65.712 12.514C64.7984 12.8507 62.899 12.8589 62.306 13.5962C62.7067 13.2756 62.0976 13.5001 61.793 13.6123C61.4324 13.5723 61.3362 13.7807 60.5188 13.9089C59.7574 14.1895 59.3968 14.1495 58.6354 14.43C57.874 14.7106 57.4172 14.8789 57.0566 14.8389C57.3772 15.2396 56.3513 15.2717 56.159 15.6885L56.0468 15.384C56.5437 14.855 55.4377 15.6084 54.6764 15.889C54.2757 16.2096 53.7627 16.2257 53.0575 16.6585L53.1136 16.8108L52.5045 17.0352C52.2961 16.9391 51.8232 16.5945 51.687 17.1635L50.8295 17.6525L49.2107 18.422L49.0584 18.4781C48.85 18.3819 48.4493 18.7025 48.3532 18.9109L48.297 18.7587C47.9925 18.8709 47.8963 19.0793 47.5918 19.1915L47.0388 19.5682C46.8304 19.4721 46.029 20.1133 45.5722 20.2816L45.6283 20.4339L44.7708 20.9228L43.9694 21.5641L43.9133 21.4118C43.4004 21.4279 43.5687 21.8847 42.9597 22.1091C42.7112 22.3736 42.2544 22.542 42.3105 22.6942C42.006 22.8065 41.9499 22.6542 41.7976 22.7103C41.8537 22.8626 41.1885 22.9348 40.8439 23.4076C40.291 23.7844 40.2509 24.145 39.8903 24.105C39.145 24.8985 39.3534 24.9946 38.8004 25.3713C38.6481 25.4275 37.9429 25.8603 37.2937 26.4454C37.0453 26.7099 37.0453 26.7099 36.7408 26.8221L36.5885 26.8782L35.7871 27.5195C35.4264 27.4794 34.7373 28.4252 34.1843 28.8019L34.0881 29.0103L33.439 29.5954C33.1906 29.8599 32.9422 30.1244 32.7899 30.1805L32.4453 30.6534L32.253 31.0702C32.0046 31.3347 31.9484 31.1824 31.9084 31.543C31.107 32.1843 30.3617 32.9777 29.921 33.659C29.9771 33.8113 30.1294 33.7552 30.0332 33.9636C29.8248 33.8674 29.7687 33.7151 29.5764 34.1319C29.6886 34.4364 30.2977 34.212 30.0493 34.4765C29.7447 34.5887 29.0234 34.5086 28.9433 35.2299C28.7349 35.1338 28.4465 35.7589 28.198 36.0234C28.3503 35.9673 28.198 36.0234 28.8071 35.799C28.6148 36.2157 28.4064 36.1196 28.2541 36.1757C28.1019 36.2318 28.0458 36.0795 27.7412 36.1918C27.7973 36.344 28.0618 36.5925 27.8134 36.857C27.605 36.7608 27.8534 36.4963 27.4928 36.4563C27.3005 36.873 25.6977 38.1555 25.9782 38.9168C25.866 38.6123 25.5775 39.2374 25.3291 39.5019L25.3852 39.6542C24.9284 39.8225 24.6399 40.4477 24.1992 41.129L24.103 41.3373C23.8947 41.2412 23.1654 42.5476 23.2777 42.8521L22.8369 43.5334C22.5724 43.285 22.3962 44.2147 22.3 44.4231L21.7631 45.3127C21.3624 45.6333 20.9377 46.8275 20.7054 47.6049L20.8577 47.5488C20.7214 48.1179 20.457 47.8694 20.3207 48.4385C19.8639 48.6068 20.2407 49.1598 19.8961 49.6327C19.6237 50.7707 19.239 51.6043 18.7983 52.2856C18.4698 53.2714 18.2935 54.2011 18.3657 54.8663C18.0211 55.3391 17.8689 55.3952 17.7326 55.9643C17.3881 56.4372 16.8754 59.7392 17.6046 58.4328L17.4523 58.4889C17.8209 57.1424 17.9252 58.8335 17.3161 59.0579C16.8994 58.8656 17.0838 59.8353 16.8915 60.2521C16.8514 60.6128 16.6831 60.1559 16.643 60.5166C16.8514 60.6128 16.4668 61.4463 16.6752 61.5425C16.4428 62.3199 16.7073 62.5683 16.5711 63.1373C16.2666 63.2496 16.451 64.2193 16.4109 64.58C16.1786 65.3574 16.2668 66.5355 16.1467 67.6175L16.2189 68.2827C16.0987 69.3646 15.9386 70.8073 16.0829 72.1377C16.139 72.2899 16.139 72.2899 16.1951 72.4422L16.1551 72.8029C15.9628 73.2196 16.1472 74.1894 16.2194 74.8546L16.3877 75.3114L16.6282 76.4334L16.7004 77.0986C16.9249 77.7077 16.9409 78.2206 16.957 78.7335L16.8047 78.7896C16.9731 79.2464 17.0453 79.9116 17.2136 80.3684L17.2697 80.5207C17.422 80.4646 17.7265 80.3524 17.7826 80.5046L17.3258 80.673C17.438 80.9775 17.398 81.3382 17.4541 81.4905C17.6064 81.4343 17.7587 81.3782 17.8148 81.5305C17.5102 81.6427 17.5663 81.795 17.7347 82.2518C17.4301 82.364 17.863 83.0693 18.0313 83.5261C18.368 84.4397 18.5203 84.3836 18.4402 85.1049C18.6085 85.5617 18.9131 85.4495 18.9291 85.9624C19.0174 87.1406 19.3058 86.5154 19.2979 87.9019L19.5224 88.511C19.6747 88.4549 19.7708 88.2465 19.867 88.0381C19.9231 88.1904 19.8269 88.3988 19.883 88.551C19.7308 88.6071 19.843 88.9117 19.7468 89.1201C20.1797 89.8253 19.8351 90.2982 20.4763 91.0996C20.6286 91.0435 20.7809 90.9874 20.837 91.1396C20.3401 91.6686 21.0614 91.7487 21.2137 91.6926C21.0614 91.7487 21.3259 91.9972 21.4221 91.7888L21.7988 92.3417C21.6465 92.3979 21.5904 92.2456 21.4381 92.3017C21.7026 92.5501 21.6065 92.7585 21.7187 93.063C21.7748 93.2153 21.8871 93.5199 21.9432 93.6721L21.9993 93.8244C22.0554 93.9767 22.1115 94.1289 22.3199 94.2251L22.376 94.3774C22.4321 94.5296 22.4882 94.6819 22.6966 94.7781L22.7527 94.9303C22.8088 95.0826 23.0172 95.1788 23.0733 95.331L23.1295 95.4833C23.1856 95.6356 23.394 95.7317 23.5062 96.0363C23.5062 96.0363 23.5062 96.0363 23.5623 96.1886C23.8829 96.5893 24.2035 96.99 24.468 97.2384C24.468 97.2384 24.5241 97.3907 24.7325 97.4868C24.7486 97.9997 25.4298 98.4405 25.9588 98.9373L26.1111 98.8812C26.3756 99.1297 26.2794 99.338 26.5439 99.5865C26.8485 99.4742 27.0008 99.4181 27.3053 99.3059L27.5137 99.4021C27.4175 99.6104 27.0569 99.5704 26.9607 99.7788C27.5859 100.067 28.3393 101.173 28.7961 101.005C28.8522 101.157 28.9084 101.309 28.7561 101.366C29.2851 101.862 29.9663 102.303 30.5915 102.592C31.6495 103.585 31.425 102.976 32.7876 103.858C32.7475 104.218 33.6933 104.908 33.9417 104.643C34.1501 104.739 34.1501 104.739 34.2463 104.531C34.4546 104.627 34.4546 104.627 34.5508 104.419L34.9676 104.611L34.7752 105.028L35.192 105.22C35.2081 105.733 36.4423 105.797 36.8591 105.989C37.6926 106.374 38.7746 106.494 39.0952 106.895L40.081 107.223L40.1772 107.015C40.65 107.359 41.1229 107.704 41.8442 107.784L42.4293 108.433C42.79 108.473 42.9984 108.569 43.2629 108.818C44.5933 108.674 45.0822 109.531 46.052 109.347L46.4126 109.387C46.4687 109.539 46.6771 109.635 47.0378 109.675C47.3584 110.076 48.3281 109.891 49.0494 109.972C49.2017 109.915 49.2017 109.915 49.354 109.859C50.5321 109.771 52.0469 110.596 52.4876 109.915C52.5438 110.067 52.7521 110.164 52.656 110.372L53.6818 110.34C54.8038 110.099 55.4851 110.54 55.982 110.011C56.1503 110.468 57.4807 110.323 58.755 110.027C58.8672 110.331 59.7808 109.995 60.2377 109.826C60.5422 109.714 60.8467 109.602 60.999 109.546C61.1112 109.85 61.5119 109.53 61.6081 109.321C61.4719 109.89 62.1771 109.458 62.5378 109.498C63.243 109.065 63.772 109.562 64.9341 108.96C65.1264 108.544 64.1967 108.367 64.6535 108.199C65.1664 108.183 65.0863 108.904 65.3909 108.792C66.4167 108.76 67.6349 108.311 68.8531 107.862C69.1576 107.75 69.366 107.846 69.6705 107.734C70.2396 107.87 71.4978 107.061 72.2592 106.78C72.4114 106.724 72.4114 106.724 72.3553 106.572C72.9244 106.708 73.7819 106.219 74.4871 105.786C75.1923 105.353 75.7453 104.976 76.5067 104.696C76.5628 104.848 76.8673 104.736 77.1158 104.471C77.3241 104.568 78.0294 104.135 78.8308 103.494L79.0792 103.229C79.6322 102.852 80.0329 102.532 80.4336 102.211C80.3935 102.572 80.3935 102.572 80.9465 102.195L81.0988 102.139C81.804 101.706 81.804 101.706 82.4531 101.121C82.7176 101.369 83.1584 100.688 83.5591 100.367C83.8075 100.103 84.0159 100.199 84.2643 99.9347C84.665 99.614 85.0257 99.6541 85.5225 99.1251L87.0692 97.6904C87.6783 97.4659 88.6159 96.2557 89.225 96.0312L89.7219 95.5022C90.1226 95.1816 90.371 94.9171 90.5233 94.861C90.5633 94.5003 90.2026 94.4603 90.5472 93.9874C90.2026 94.4603 90.7717 94.5965 90.8117 94.2358C91.7654 93.5385 93.256 91.9515 93.6967 91.2703C93.1999 91.7993 93.5845 90.9657 93.5845 90.9657C93.4883 91.1741 93.2799 91.0779 93.1277 91.1341C93.1116 90.6211 93.0555 90.4689 92.4464 90.6933C92.2781 90.2365 92.8471 90.3727 92.9994 90.3166C92.9433 90.1643 93.0394 89.9559 93.2478 90.0521C92.8071 90.7334 93.7207 90.3967 93.8329 90.7012C94.0413 90.7974 93.4883 91.1741 93.7528 91.4225C94.4581 90.9897 95.7002 89.6672 96.0287 88.6814C96.2371 88.7776 96.5256 88.1524 96.4695 88.0001C96.6217 87.944 96.6779 88.0963 96.774 87.8879C97.0625 87.2628 97.8238 86.9822 97.8078 86.4693C98.2085 86.1486 98.7053 85.6197 99.2022 85.0907L99.2984 84.8823C99.2422 84.73 99.0339 84.6338 99.0739 84.2732C99.2823 84.3693 99.3384 84.5216 99.3945 84.6739C99.699 84.5617 99.5307 84.1049 99.9475 84.2972C100.428 83.2552 101.574 82.1411 101.462 81.8366C101.574 82.1411 101.863 81.516 102.111 81.2515C102.207 81.0431 102.36 80.987 102.552 80.5702C102.953 80.2496 103.473 78.847 103.818 78.3742C104.026 78.4703 104.123 78.2619 104.315 77.8452C104.603 77.22 104.659 77.3723 104.948 76.7471C105.485 75.8575 106.406 74.1343 106.639 73.3569L106.735 73.1485C107.096 73.1885 106.967 72.3711 107.256 71.7459C107.488 70.9685 107.488 70.9685 107.777 70.3433C107.873 70.135 108.161 69.5098 108.297 68.9408C108.474 68.0111 108.586 68.3156 108.818 67.5382C108.97 67.4821 108.994 66.6085 109.243 66.344C109.515 65.2059 109.595 64.4846 109.732 63.9156C110.044 62.4168 110.084 62.0562 110.188 60.4613C110.212 59.5877 110.1 59.2832 110.084 58.7702C110.14 58.9225 110.164 58.0489 110.124 58.4096C109.972 58.4657 110.068 58.2573 110.164 58.0489C109.939 57.4398 109.923 56.9269 109.867 56.7746L109.811 56.6224C109.755 56.4701 109.755 56.4701 109.811 56.6224C109.755 56.4701 109.755 56.4701 109.771 56.983C109.771 56.983 109.771 56.983 109.715 56.8308C109.715 56.8308 109.715 56.8308 109.659 56.6785C109.659 56.6785 109.731 57.3437 109.635 57.5521C109.579 57.3998 109.579 57.3998 109.539 57.7605C109.403 58.3295 109.395 59.716 109.315 60.4373C109.275 60.798 109.098 61.7277 109.058 62.0883C108.962 62.2967 108.866 62.5051 108.826 62.8657L108.73 63.0741C108.481 63.3386 108.594 63.6432 108.305 64.2683C108.169 64.8374 108.073 65.0457 107.88 65.4625L107.552 66.4483L107.704 66.3922C107.76 66.5445 107.608 66.6006 107.608 66.6006C107.319 67.2257 106.783 68.1154 106.51 69.2535L106.358 69.3096C106.262 69.518 106.166 69.7263 106.166 69.7263C106.109 69.5741 106.262 69.518 106.262 69.518L106.069 69.9347C105.973 70.1431 105.973 70.1431 105.973 70.1431C106.166 69.7263 105.989 70.656 105.837 70.7121C105.589 70.9766 105.645 71.1289 105.533 70.8244C105.244 71.4495 105.204 71.8102 104.956 72.0747C104.956 72.0747 105.108 72.0186 105.068 72.3792C104.956 72.0747 104.515 72.7559 104.723 72.8521C104.531 73.2689 104.475 73.1166 104.379 73.325C104.435 73.4773 104.186 73.7418 104.146 74.1024C103.994 74.1585 103.994 74.1585 103.746 74.423C103.593 74.4791 103.401 74.8959 103.305 75.1043C103.153 75.1604 102.96 75.5772 102.864 75.7856C102.728 76.3546 101.87 76.8435 102.079 76.9397C101.983 77.1481 101.774 77.0519 101.678 77.2603C101.237 77.9416 101.293 78.0939 100.989 78.2061C101.197 78.3022 101.35 78.2461 101.502 78.19L101.406 78.3984C101.101 78.5106 101.005 78.719 100.893 78.4145L100.42 78.0699C100.171 78.3344 99.6746 78.8634 99.33 79.3362L98.8892 80.0175C98.6408 80.282 98.6408 80.282 98.3363 80.3942C97.8394 80.9232 97.7432 81.1316 97.3987 81.6045C97.3425 81.4522 97.0941 81.7167 97.3025 81.8129C97.0541 82.0774 96.8457 81.9812 96.5011 82.4541L96.7095 82.5503L96.9579 82.2858C96.9579 82.2858 97.014 82.438 96.7656 82.7025C96.1565 82.927 96.6133 82.7586 96.421 83.1754C96.2126 83.0793 96.0042 82.9831 95.6997 83.0953C96.0604 83.1354 94.8983 83.7365 95.1628 83.985C94.7221 84.6662 94.4576 84.4178 94.0168 85.0991C93.3677 85.6842 93.1754 86.101 92.5262 86.6861C92.5824 86.8383 92.4862 87.0467 92.8469 87.0868C92.5984 87.3513 92.4862 87.0467 92.2778 86.9506C91.9733 87.0628 91.6287 87.5357 91.6848 87.6879C91.0757 87.9124 91.2841 88.0085 90.635 88.5937C90.9556 88.9944 90.8273 88.1769 91.2441 88.3692C90.8434 88.6898 91.204 88.7299 90.8033 89.0505C90.4827 88.6498 90.2904 89.0665 90.2503 89.4272C90.042 89.331 89.8336 89.2349 89.5851 89.4994C89.6413 89.6516 89.3367 89.7639 89.2406 89.9723L89.2967 90.1245L89.1444 90.1806C88.4953 90.7657 86.628 91.7998 87.4054 92.0321C87.157 92.2966 86.9486 92.2005 86.7963 92.2566C86.1872 92.481 86.1472 92.8417 85.5942 93.2184C85.7064 93.5229 86.1071 93.2023 86.2194 93.5069C85.5141 93.9397 85.7465 93.1623 85.1935 93.539C84.9451 93.8035 85.4019 93.6352 85.3057 93.8436C84.905 94.1642 84.889 93.6512 84.6405 93.9157C85.0573 94.1081 84.4482 94.3325 84.5043 94.4848C84.4482 94.3325 84.5444 94.1241 84.296 94.3886C83.3262 94.573 82.3886 95.7833 81.1704 96.2322C80.9621 96.136 81.0182 96.2883 80.922 96.4967C80.7136 96.4005 80.3691 96.8734 80.0084 96.8334C80.4813 97.178 79.5115 97.3624 79.3593 97.4185C79.4154 97.5708 79.2631 97.6269 79.3192 97.7791C78.7662 98.1559 78.4056 98.1158 78.0449 98.0758C78.1572 98.3803 77.5881 98.2441 77.1874 98.5647C77.0191 98.1079 76.6345 98.9414 76.3299 99.0537C75.3602 99.2381 74.9034 99.4064 73.9497 100.104C73.6452 100.216 73.7413 100.008 73.4368 100.12C73.1883 100.384 72.7876 100.705 72.8999 101.009C72.2747 100.721 72.1946 101.442 71.7779 101.25C71.874 101.042 72.0263 100.985 72.1224 100.777C71.3611 101.058 71.4733 101.362 70.9043 101.226C70.9203 101.739 71.321 101.418 71.4333 101.723C71.281 101.779 71.3371 101.931 71.1848 101.987C71.1688 101.474 70.3674 102.116 70.3513 101.603C70.5036 101.547 70.8642 101.587 70.5997 101.338C70.4475 101.394 70.1429 101.507 70.199 101.659C69.4377 101.939 68.1073 102.084 67.1536 102.781C67.0013 102.837 67.0575 102.99 66.9052 103.046C66.7529 103.102 66.809 103.254 66.6568 103.31C66.5445 103.006 66.3923 103.062 66.28 102.757C65.6709 102.982 65.6309 103.342 65.0619 103.206L65.1741 103.511C64.7734 103.831 64.7573 103.318 64.3005 103.487C63.8276 103.142 63.5953 103.919 63.0823 103.936C62.4572 103.647 61.4313 103.679 60.5738 104.168C60.5177 104.016 59.7403 103.783 59.7964 103.936L59.6441 103.992L58.5782 104.385C58.6343 104.537 58.6905 104.689 58.5382 104.745C57.8169 104.665 57.5924 104.056 56.6788 104.393C56.5265 104.449 54.571 104.305 54.4348 104.874C54.6671 104.096 53.7535 104.433 53.3929 104.393C52.936 104.561 52.92 104.049 52.4632 104.217C51.285 104.305 50.5477 103.712 49.7463 104.353C49.4818 104.105 49.2173 103.856 49.105 103.552C48.9127 103.969 48.7043 103.873 48.8727 104.329L48.7204 104.385C48.6082 104.081 48.6482 103.72 48.2876 103.68C48.0391 103.945 47.3739 104.017 46.9572 103.825C47.1094 103.768 47.414 103.656 47.5663 103.6C46.7888 103.368 45.5546 103.304 45.4745 104.025C45.4424 102.999 45.3462 103.208 44.9055 103.889L45.1378 103.111C44.2081 102.935 43.7914 102.743 43.5269 102.494C43.3185 102.398 43.1101 102.302 42.9017 102.206L42.7494 102.262L42.5972 102.318C42.4449 102.374 42.2926 102.43 42.2926 102.43C42.5811 101.805 41.403 101.893 40.9301 101.549C40.7217 101.453 40.305 101.26 40.2088 101.469C39.4875 101.389 39.9843 100.86 39.5676 100.667C39.3191 100.932 38.9024 100.74 38.5978 100.852C38.4856 100.547 38.0688 100.355 38.2372 100.812C37.8765 100.772 37.612 100.523 38.0127 100.203C37.7482 99.9543 37.7082 100.315 37.3475 100.275C37.4837 99.7058 37.083 100.026 36.6663 99.8341L36.4579 99.738C36.4018 99.5857 36.554 99.5296 36.4979 99.3773C36.4018 99.5857 36.1373 99.3373 35.8327 99.4495C35.3598 99.1049 35.3598 99.1049 34.9992 99.0649C35.0953 98.8565 35.1915 98.6481 34.9431 98.9126C34.7347 98.8164 34.5263 98.7203 34.3179 98.6241L34.0534 98.3757C33.845 98.2795 34.0374 97.8628 33.5805 98.0311C33.5805 98.0311 33.6767 97.8227 33.5244 97.8788C32.9954 97.382 32.1619 96.9974 31.6329 96.5005C31.8413 96.5967 31.5929 96.8612 31.3845 96.765C31.12 96.5166 31.0639 96.3643 31.0078 96.212L30.8555 96.2681L30.6471 96.172C30.7433 95.9636 30.9516 96.0598 31.0478 95.8514C30.631 95.6591 30.6871 95.8113 30.6711 95.2984C30.2704 95.619 29.8776 94.5531 29.7654 94.2486L29.2685 94.7776C28.7395 94.2807 29.6692 94.457 29.5009 94.0001C29.1963 94.1124 29.3886 93.6956 28.8757 93.7117C29.028 93.6556 28.9719 93.5033 28.9158 93.351C28.0822 92.9664 28.1623 92.2451 27.4971 92.3173C28.01 92.3012 27.7455 92.0528 27.6333 91.7482C27.0643 91.612 27.1765 91.9166 26.8158 91.8765L26.6636 91.9326C26.6075 91.7804 26.6075 91.7804 26.7597 91.7242C26.8559 91.5159 27.1604 91.4036 27.1043 91.2514C26.7998 91.3636 26.936 90.7945 26.8799 90.6423C26.5753 90.7545 26.6875 91.059 26.4792 90.9629C26.7276 90.6984 26.407 90.2977 26.5031 90.0893C25.9902 90.1054 25.7497 88.9834 25.2768 88.6388C25.1245 88.6949 24.6277 89.2239 24.5155 88.9193C25.4291 88.5827 24.9401 87.7252 24.6596 86.9638C24.355 87.076 24.2989 86.9237 24.3951 86.7154C24.339 86.5631 24.4912 86.507 24.5874 86.2986C24.2828 86.4108 24.6274 85.9379 24.2107 85.7456L23.874 84.832C23.8579 84.3191 23.6896 83.8623 23.2728 83.6699C23.0884 82.7002 23.1284 82.3396 22.7517 81.7866L22.904 81.7305C22.8318 81.0653 22.1827 81.6504 22.1105 80.9852C22.5673 80.8168 22.5673 80.8168 22.3028 80.5684C22.968 80.4962 22.1345 80.1116 22.0222 79.8071C22.3668 79.3342 21.8939 78.9896 21.8218 78.3244C22.0141 77.9076 21.5973 77.7153 21.7896 77.2985C21.6374 77.3547 21.429 77.2585 21.3167 76.954C21.469 76.8978 21.4129 76.7456 21.7174 76.6333C21.533 75.6636 21.0762 75.8319 21.3647 75.2068C21.0441 74.8061 20.8678 75.7358 20.7395 74.9183C20.8357 74.7099 21.1402 74.5977 20.9719 74.1409C20.4189 74.5176 20.5712 74.4615 20.1144 74.6298C19.9621 74.686 19.7537 74.5898 19.6976 74.4375C19.6415 74.2853 19.377 74.0368 19.6254 73.7723C19.7377 74.0769 19.9461 74.173 20.1544 74.2692C20.3468 73.8524 20.8036 73.6841 21.2043 73.3635C20.8275 72.8105 21.4445 71.1995 20.7311 69.7329C21.1079 70.2859 20.9234 69.3162 20.9074 68.8033C20.7952 68.4987 21.0436 68.2342 20.8913 68.2903C20.8031 67.1122 21.1637 67.1522 20.9393 66.5432L20.9793 66.1825C21.3318 64.3231 20.9711 64.2831 21.3476 61.5501L21.3155 60.5243C21.2994 60.0113 21.3395 59.6507 21.5157 58.721L21.5557 58.3603C21.6198 57.1261 22.0766 56.9577 21.8922 55.988C22.2528 56.0281 21.9082 56.5009 22.1166 56.5971C22.1567 56.2364 22.2528 56.0281 22.349 55.8197C22.1406 55.7235 21.8761 55.4751 21.9161 55.1144L22.1245 55.2106C22.7897 55.1384 22.2046 54.4893 22.3969 54.0725C22.7015 53.9603 22.3809 53.5596 22.7015 53.9603C22.7415 53.5996 22.8377 53.3912 22.5732 53.1428L22.7094 52.5738C22.8617 52.5177 23.0139 52.4615 23.1101 52.2532C23.2062 52.0448 22.9417 51.7963 23.3585 51.9887C23.5508 51.5719 23.7431 51.1551 23.3825 51.1151C23.4786 50.9067 23.6309 50.8506 23.4225 50.7544C23.711 50.1293 23.5909 51.2112 23.8793 50.5861C23.671 50.4899 24.3201 49.9048 24.304 49.3919C24.6486 48.919 24.5764 48.2538 24.6165 47.8932C25.0733 47.7248 25.514 47.0436 25.5541 46.6829C25.5541 46.6829 25.4579 46.8913 25.4018 46.739C25.6502 46.4745 25.4418 46.3784 25.6342 45.9616C25.8425 46.0577 25.9948 46.0016 26.1471 45.9455L26.3394 45.5288C26.6679 44.5429 27.0125 44.0701 27.1087 43.8617C27.2048 43.6533 27.2609 43.8056 27.3571 43.5972C27.301 43.4449 26.9964 43.5571 27.0926 43.3488C27.934 42.3469 28.2786 41.874 28.8155 40.9843C28.9117 40.776 29.0078 40.5676 28.9517 40.4153L29.0078 40.5676C29.4085 40.247 29.4085 40.247 29.4647 40.3992C29.7531 39.7741 30.3061 39.3974 30.0817 38.7883C30.2339 38.7322 30.3862 38.676 30.6346 38.4116L30.5785 38.2593C31.0353 38.0909 31.4761 37.4097 31.9729 36.8807C32.1813 36.9768 32.4698 36.3517 32.4137 36.1994C32.7583 35.7265 33.1189 35.7666 33.3673 35.5021C32.9506 35.3098 33.4635 35.2937 33.7119 35.0292C33.6558 34.8769 33.5035 34.933 33.3513 34.9892C33.5997 34.7247 33.239 34.6846 33.5836 34.2117C33.8882 34.0995 34.0004 34.404 34.2488 34.1395C34.1927 33.9873 34.345 33.9312 34.4011 34.0834L35.0502 33.4983C35.4109 33.5384 35.3387 32.8732 35.8516 32.8571C35.7955 32.7048 35.7955 32.7048 35.7394 32.5526C35.8356 32.3442 36.0439 32.4403 36.2924 32.1758C36.5808 31.5507 37.1499 31.6869 37.5345 30.8534C38.1836 30.2682 38.0875 30.4766 38.5843 29.9476C38.7927 30.0438 38.8889 29.8354 39.1373 29.5709L39.1934 29.7232C39.5941 29.4026 39.538 29.2503 39.7864 28.9858C40.2994 28.9697 40.5878 28.3446 40.8924 28.2324L40.8363 28.0801L40.9885 28.024C41.3492 28.064 41.7899 27.3828 41.8861 27.1744C42.0945 27.2705 42.2468 27.2144 42.4952 26.9499C43.2004 26.5171 43.3527 26.461 43.6412 25.8358L43.6973 25.9881C44.4025 25.5552 44.3464 25.403 44.2342 25.0984C44.9394 24.6656 44.0419 25.5152 44.7071 25.443C45.0517 24.9701 45.8691 24.8418 46.3099 24.1606C46.366 24.3128 46.6705 24.2006 46.8228 24.1445C46.7667 23.9922 46.7106 23.84 47.0151 23.7277L47.2796 23.9762C47.5841 23.8639 47.528 23.7117 47.6242 23.5033C47.6803 23.6556 48.2894 23.4311 48.2333 23.2788C48.081 23.3349 48.0249 23.1827 48.3294 23.0705C48.4417 23.375 49.3392 22.5254 49.796 22.357C50.4051 22.1326 50.6535 21.8681 51.5672 21.5314C51.9679 21.2108 52.5769 20.9864 52.6731 20.778C53.0338 20.818 53.739 20.3852 54.0435 20.273C54.5565 20.2569 54.292 20.0085 54.7488 19.8401L54.8049 19.9924C55.5663 19.7118 55.5663 19.7118 56.3276 19.4313C56.4238 19.2229 56.3677 19.0706 56.6722 18.9584C56.7283 19.1106 56.576 19.1668 56.6322 19.319C56.9367 19.2068 57.089 19.1507 57.2412 19.0946C57.1851 18.9423 57.0329 18.9984 56.9767 18.8461C57.4336 18.6778 57.5458 18.9824 57.7381 18.5656L57.6259 18.261L57.7781 18.2049L57.8342 18.3572C58.5956 18.0766 57.8904 18.5095 57.9465 18.6617C59.2608 18.0045 59.0124 18.2689 60.2305 17.82L60.1183 17.5155C60.8797 17.2349 60.0783 17.8762 60.8396 17.5956C61.4487 17.3711 60.2706 17.4594 60.8797 17.2349C61.3365 17.0666 60.8957 17.7479 61.4487 17.3711C61.5449 17.1628 62.2662 17.2428 62.8191 16.8661C62.763 16.7138 62.7069 16.5616 62.8592 16.5055C62.8592 16.5055 62.9153 16.6577 63.0676 16.6016C63.2198 16.5455 63.276 16.6978 63.276 16.6978L64.3419 16.305C64.2857 16.1527 64.2296 16.0004 64.438 16.0966C64.4941 16.2489 64.4941 16.2489 64.7025 16.345C64.6464 16.1928 64.6464 16.1928 64.9509 16.0805C65.2154 16.329 65.7123 15.8 66.4336 15.8801C66.5859 15.8239 66.7381 15.7678 66.7381 15.7678C67.0427 15.6556 67.0988 15.8079 67.5556 15.6395L67.3873 15.1827C67.5395 15.1266 67.5957 15.2789 67.5957 15.2789C68.2048 15.0544 68.7577 14.6777 69.1745 14.87C69.479 14.7578 69.6313 14.7017 69.992 14.7417L69.9358 14.5895C70.5449 14.365 70.6572 14.6695 71.7792 14.429L71.723 14.2767C71.683 14.6374 71.8914 14.7336 72.5005 14.5091C73.3179 14.3808 74.1915 14.4048 74.2316 14.0441C74.3438 14.3487 74.9529 14.1242 75.4658 14.1082C75.1613 14.2204 76.7562 14.3244 76.7562 14.3244C76.9645 14.4206 77.6297 14.3484 78.0865 14.1801C78.0865 14.1801 78.0865 14.1801 78.1427 14.3324L78.2949 14.2762L78.8079 14.2602C78.9601 14.2041 78.9601 14.2041 79.1124 14.1479L79.3208 14.2441C79.8337 14.228 80.1944 14.2681 80.6111 14.4604C81.1802 14.5966 81.6931 14.5805 82.2621 14.7167C82.3022 14.3561 81.9015 14.6767 81.8454 14.5244C82.1499 14.4122 82.1499 14.4122 82.5106 14.4522C82.5667 14.6045 82.4144 14.6606 82.7751 14.7007C82.8151 14.34 82.9273 14.6446 83.1357 14.7407C83.4964 14.7808 82.8712 14.4923 83.3841 14.4762C83.4403 14.6285 83.5925 14.5724 83.4964 14.7808C84.0654 14.917 83.857 14.8208 84.2738 15.0131C84.2177 14.8608 84.8428 15.1493 84.9951 15.0932C85.2035 15.1894 85.6203 15.3817 85.8286 15.4778C86.3015 15.8224 86.3977 15.614 86.7583 15.6541C86.8145 15.8064 87.0228 15.9025 87.2312 15.9987C87.8564 16.2871 87.8564 16.2871 88.4815 16.5756C88.9544 16.9202 89.0506 16.7118 89.5234 17.0564L89.4673 16.9041C89.9963 17.401 90.7176 17.4811 91.2466 17.9779C91.1344 17.6734 91.3428 17.7696 91.7034 17.8096C91.7596 17.9619 92.0241 18.2103 92.0802 18.3626C92.9698 18.8995 94.0679 19.5325 94.3885 19.9332C94.7491 19.9733 95.3342 20.6224 95.6388 20.5102C95.5426 20.7186 96.1117 20.8548 96.4323 21.2555C96.9051 21.6 96.9613 21.7523 97.1696 21.8485C97.2258 22.0007 97.2819 22.153 97.4903 22.2492C97.4903 22.2492 97.6425 22.1931 97.6986 22.3453C97.6986 22.3453 97.7548 22.4976 98.0192 22.746C98.2837 22.9945 98.2837 22.9945 98.4921 23.0906C98.4921 23.0906 98.3399 23.1467 98.6044 23.3952C98.7566 23.3391 99.1334 23.892 99.3417 23.9882C99.5501 24.0843 99.5501 24.0843 99.7585 24.1805C100.231 24.5251 99.3417 23.9882 99.8707 24.485C99.9669 24.2767 100.304 25.1903 100.4 24.9819C100.344 24.8296 100.344 24.8296 100.4 24.9819C100.4 24.9819 100.4 24.9819 100.456 25.1342C100.304 25.1903 101.305 26.0317 101.305 26.0317C101.249 25.8795 101.249 25.8795 101.305 26.0317C101.57 26.2802 101.682 26.5847 101.947 26.8331C102.323 27.3861 102.307 26.8732 102.628 27.2739C102.42 27.1777 102.267 27.2338 102.588 27.6345C102.908 28.0352 103.229 28.4359 103.061 27.9791C103.478 28.1714 103.229 28.4359 103.758 28.9328C103.87 29.2373 104.608 29.8303 104.439 29.3735C104.552 29.6781 104.76 29.7742 104.816 29.9265C104.872 30.0788 104.247 29.7903 104.72 30.1349C105.024 30.0227 104.888 30.5917 105.305 30.784C105.682 31.337 105.682 31.337 105.794 31.6415C106.002 31.7377 105.666 30.8241 105.874 30.9202C105.89 31.4331 106.139 31.1686 106.307 31.6255C106.042 31.377 106.042 31.377 105.89 31.4331C106.323 32.1384 105.738 31.4892 106.058 31.8899C106.491 32.5952 107.036 33.605 107.413 34.1579C107.621 34.2541 107.245 33.7011 107.397 33.645C107.509 33.9496 107.662 33.8934 107.718 34.0457C107.718 34.0457 107.565 34.1018 107.886 34.5025C108.167 35.2639 108.824 36.5782 109.241 36.7705C108.976 36.5221 109.369 37.588 109.297 36.9228C109.633 37.8364 109.842 37.9326 110.066 38.5417C110.178 38.8462 110.235 38.9985 110.291 39.1507C110.571 39.9121 110.515 39.7598 110.852 40.6735C110.964 40.978 111.132 41.4348 111.301 41.8916C111.413 42.1962 111.413 42.1962 111.525 42.5007C111.581 42.653 111.75 43.1098 111.75 43.1098C111.637 42.8053 111.846 42.9014 111.79 42.7491L111.846 42.9014C111.694 42.9575 111.694 42.9575 111.806 43.2621C112.086 44.0234 112.086 44.0234 112.271 44.9932C112.327 45.1454 112.383 45.2977 112.439 45.45C112.68 46.572 112.944 46.8204 112.92 47.694C113.032 47.9985 113.161 48.816 113.161 48.816C113.201 48.4553 113.313 48.7599 113.577 49.0083C113.521 48.856 113.537 49.369 113.441 49.5774C113.425 49.0644 113.401 49.938 113.513 50.2426C113.569 50.3948 113.626 50.5471 113.473 50.6032C113.682 50.6994 113.738 50.8516 113.794 51.0039C113.962 51.4607 113.922 51.8214 113.786 52.3904L113.842 52.5427C113.93 53.7208 113.81 54.8028 113.69 55.8847C113.899 55.9809 113.955 56.1332 113.915 56.4938C114.003 57.6719 113.883 58.7539 113.763 59.8359C113.899 59.2668 113.979 58.5455 114.115 57.9765L114.211 57.7681C114.347 57.1991 114.331 56.6861 114.275 56.5339C114.315 56.1732 114.259 56.0209 114.355 55.8126C114.395 55.4519 114.419 54.5783 114.516 54.3699C114.499 53.857 114.636 53.288 114.563 52.6228C114.604 52.2621 114.587 51.7492 114.475 51.4447C114.459 50.9317 114.419 51.2924 114.403 50.7795L114.555 50.7233L114.427 49.9059C114.315 49.6013 114.339 48.7278 114.283 48.5755C114.227 48.4232 114.267 48.0626 114.17 48.2709C114.227 48.4232 114.283 48.5755 114.227 48.4232L114.21 47.9103C114.267 48.0626 114.194 47.3974 114.082 47.0928C114.066 46.5799 113.954 46.2753 113.786 45.8185L113.729 45.6663C113.713 45.1533 113.304 43.5745 113.192 43.27L112.856 42.3563C112.407 41.1382 111.942 39.4071 111.509 38.7018Z" fill="#D91A32"/>
</svg>
